<svg width="54" height="17" viewBox="0 0 54 17" fill="none" xmlns="http://www.w3.org/2000/svg">
<path d="M10.64 10.267L8.79203 5.2165C8.70103 4.9925 8.60653 4.7265 8.50853 4.4185C8.41053 4.1105 8.31253 3.778 8.21453 3.421C8.12353 3.778 8.02903 4.114 7.93103 4.429C7.83303 4.737 7.73853 5.0065 7.64753 5.2375L5.81003 10.267H10.64ZM15.6275 16H13.4435C13.1985 16 12.999 15.9405 12.845 15.8215C12.691 15.6955 12.5755 15.5415 12.4985 15.3595L11.3645 12.262H5.07503L3.94103 15.3595C3.88503 15.5205 3.77653 15.6675 3.61553 15.8005C3.45453 15.9335 3.25503 16 3.01703 16H0.812034L6.78653 0.816999H9.66353L15.6275 16ZM16.7169 16V7.18L15.7824 7.033C15.5794 6.991 15.4149 6.921 15.2889 6.823C15.1699 6.718 15.1104 6.571 15.1104 6.382V5.3215H16.7169V4.5235C16.7169 3.9075 16.8079 3.3545 16.9899 2.8645C17.1789 2.3745 17.4449 1.958 17.7879 1.615C18.1379 1.272 18.5614 1.0095 19.0584 0.827499C19.5554 0.645499 20.1154 0.554499 20.7384 0.554499C21.2354 0.554499 21.6974 0.620999 22.1244 0.754L22.0719 2.056C22.0649 2.154 22.0369 2.2345 21.9879 2.2975C21.9389 2.3535 21.8724 2.399 21.7884 2.434C21.7114 2.462 21.6204 2.483 21.5154 2.497C21.4104 2.504 21.2984 2.5075 21.1794 2.5075C20.8714 2.5075 20.5949 2.5425 20.3499 2.6125C20.1119 2.6755 19.9089 2.791 19.7409 2.959C19.5729 3.12 19.4434 3.337 19.3524 3.61C19.2684 3.876 19.2264 4.2085 19.2264 4.6075V5.3215H22.0299V7.1695H19.3104V16H16.7169ZM25.5768 7.096C25.9128 6.452 26.3118 5.948 26.7738 5.584C27.2358 5.213 27.7818 5.0275 28.4118 5.0275C28.9088 5.0275 29.3078 5.136 29.6088 5.353L29.4408 7.2955C29.4058 7.4215 29.3533 7.5125 29.2833 7.5685C29.2203 7.6175 29.1328 7.642 29.0208 7.642C28.9158 7.642 28.7583 7.6245 28.5483 7.5895C28.3453 7.5545 28.1458 7.537 27.9498 7.537C27.6628 7.537 27.4073 7.579 27.1833 7.663C26.9593 7.747 26.7563 7.8695 26.5743 8.0305C26.3993 8.1845 26.2418 8.3735 26.1018 8.5975C25.9688 8.8215 25.8428 9.077 25.7238 9.364V16H23.1303V5.227H24.6528C24.9188 5.227 25.1043 5.276 25.2093 5.374C25.3143 5.465 25.3843 5.633 25.4193 5.878L25.5768 7.096ZM33.2953 5.227V16H30.6913V5.227H33.2953ZM33.6523 2.0875C33.6523 2.3115 33.6068 2.5215 33.5158 2.7175C33.4248 2.9135 33.3023 3.085 33.1483 3.232C33.0013 3.379 32.8263 3.498 32.6233 3.589C32.4203 3.673 32.2033 3.715 31.9723 3.715C31.7483 3.715 31.5348 3.673 31.3318 3.589C31.1358 3.498 30.9643 3.379 30.8173 3.232C30.6703 3.085 30.5513 2.9135 30.4603 2.7175C30.3763 2.5215 30.3343 2.3115 30.3343 2.0875C30.3343 1.8565 30.3763 1.6395 30.4603 1.4365C30.5513 1.2335 30.6703 1.0585 30.8173 0.9115C30.9643 0.764499 31.1358 0.648999 31.3318 0.565C31.5348 0.474 31.7483 0.4285 31.9723 0.4285C32.2033 0.4285 32.4203 0.474 32.6233 0.565C32.8263 0.648999 33.0013 0.764499 33.1483 0.9115C33.3023 1.0585 33.4248 1.2335 33.5158 1.4365C33.6068 1.6395 33.6523 1.8565 33.6523 2.0875ZM43.2998 7.5055C43.2228 7.6035 43.1458 7.6805 43.0688 7.7365C42.9988 7.7925 42.8938 7.8205 42.7538 7.8205C42.6208 7.8205 42.4913 7.782 42.3653 7.705C42.2393 7.621 42.0888 7.53 41.9138 7.432C41.7388 7.327 41.5288 7.236 41.2838 7.159C41.0458 7.075 40.7483 7.033 40.3913 7.033C39.9363 7.033 39.5373 7.117 39.1943 7.285C38.8513 7.446 38.5643 7.6805 38.3333 7.9885C38.1093 8.2965 37.9413 8.671 37.8293 9.112C37.7173 9.546 37.6613 10.0395 37.6613 10.5925C37.6613 11.1665 37.7208 11.6775 37.8398 12.1255C37.9658 12.5735 38.1443 12.9515 38.3753 13.2595C38.6063 13.5605 38.8863 13.7915 39.2153 13.9525C39.5443 14.1065 39.9153 14.1835 40.3283 14.1835C40.7413 14.1835 41.0738 14.1345 41.3258 14.0365C41.5848 13.9315 41.8018 13.8195 41.9768 13.7005C42.1518 13.5745 42.3023 13.4625 42.4283 13.3645C42.5613 13.2595 42.7083 13.207 42.8693 13.207C43.0793 13.207 43.2368 13.2875 43.3418 13.4485L44.0873 14.3935C43.8003 14.7295 43.4888 15.013 43.1528 15.244C42.8168 15.468 42.4668 15.65 42.1028 15.79C41.7458 15.923 41.3748 16.0175 40.9898 16.0735C40.6118 16.1295 40.2338 16.1575 39.8558 16.1575C39.1908 16.1575 38.5643 16.035 37.9763 15.79C37.3883 15.538 36.8738 15.174 36.4328 14.698C35.9918 14.222 35.6418 13.641 35.3828 12.955C35.1308 12.262 35.0048 11.4745 35.0048 10.5925C35.0048 9.8015 35.1168 9.07 35.3408 8.398C35.5718 7.719 35.9078 7.1345 36.3488 6.6445C36.7898 6.1475 37.3358 5.759 37.9868 5.479C38.6378 5.199 39.3868 5.059 40.2338 5.059C41.0388 5.059 41.7423 5.1885 42.3443 5.4475C42.9533 5.7065 43.4993 6.0775 43.9823 6.5605L43.2998 7.5055ZM51.0471 11.401C50.2981 11.436 49.6681 11.5025 49.1571 11.6005C48.6461 11.6915 48.2366 11.8105 47.9286 11.9575C47.6206 12.1045 47.4001 12.276 47.2671 12.472C47.1341 12.668 47.0676 12.8815 47.0676 13.1125C47.0676 13.5675 47.2006 13.893 47.4666 14.089C47.7396 14.285 48.0931 14.383 48.5271 14.383C49.0591 14.383 49.5176 14.2885 49.9026 14.0995C50.2946 13.9035 50.6761 13.6095 51.0471 13.2175V11.401ZM45.1041 6.7285C46.3431 5.5945 47.8341 5.0275 49.5772 5.0275C50.2071 5.0275 50.7706 5.1325 51.2677 5.3425C51.7647 5.5455 52.1847 5.8325 52.5277 6.2035C52.8706 6.5675 53.1296 7.005 53.3047 7.516C53.4866 8.027 53.5776 8.587 53.5776 9.196V16H52.4016C52.1566 16 51.9676 15.965 51.8346 15.895C51.7016 15.818 51.5966 15.6675 51.5197 15.4435L51.2886 14.6665C51.0156 14.9115 50.7496 15.1285 50.4906 15.3175C50.2316 15.4995 49.9621 15.6535 49.6821 15.7795C49.4021 15.9055 49.1011 16 48.7791 16.063C48.4641 16.133 48.1141 16.168 47.7291 16.168C47.2741 16.168 46.8541 16.1085 46.4691 15.9895C46.0841 15.8635 45.7516 15.678 45.4716 15.433C45.1916 15.188 44.9746 14.8835 44.8206 14.5195C44.6666 14.1555 44.5896 13.732 44.5896 13.249C44.5896 12.976 44.6351 12.7065 44.7261 12.4405C44.8171 12.1675 44.9641 11.9085 45.1671 11.6635C45.3771 11.4185 45.6466 11.1875 45.9756 10.9705C46.3046 10.7535 46.7071 10.5645 47.1831 10.4035C47.6661 10.2425 48.2261 10.113 48.8631 10.015C49.5001 9.91 50.2282 9.847 51.0471 9.826V9.196C51.0471 8.475 50.8931 7.943 50.5851 7.6C50.2771 7.25 49.8326 7.075 49.2516 7.075C48.8316 7.075 48.4816 7.124 48.2016 7.222C47.9286 7.32 47.6871 7.432 47.4771 7.558C47.2671 7.677 47.0746 7.7855 46.8996 7.8835C46.7316 7.9815 46.5426 8.0305 46.3326 8.0305C46.1506 8.0305 45.9966 7.985 45.8706 7.894C45.7446 7.796 45.6431 7.684 45.5661 7.558L45.1041 6.7285Z" fill="#0E0E0F" fill-opacity="0.75"/>
</svg>
