<svg width="29" height="29" viewBox="0 0 29 29" fill="none" xmlns="http://www.w3.org/2000/svg">
<path d="M14.5 0C15.5025 0 16.3125 0.809961 16.3125 1.8125V3.77793C20.8664 4.53691 24.4631 8.13359 25.2221 12.6875H27.1875C28.19 12.6875 29 13.4975 29 14.5C29 15.5025 28.19 16.3125 27.1875 16.3125H25.2221C24.4631 20.8664 20.8664 24.4631 16.3125 25.2221V27.1875C16.3125 28.19 15.5025 29 14.5 29C13.4975 29 12.6875 28.19 12.6875 27.1875V25.2221C8.13359 24.4631 4.53691 20.8664 3.77793 16.3125H1.8125C0.809961 16.3125 0 15.5025 0 14.5C0 13.4975 0.809961 12.6875 1.8125 12.6875H3.77793C4.53691 8.13359 8.13359 4.53691 12.6875 3.77793V1.8125C12.6875 0.809961 13.4975 0 14.5 0ZM7.25 14.5C7.25 18.5045 10.4955 21.75 14.5 21.75C18.5045 21.75 21.75 18.5045 21.75 14.5C21.75 10.4955 18.5045 7.25 14.5 7.25C10.4955 7.25 7.25 10.4955 7.25 14.5ZM14.5 19.0312C11.9965 19.0312 9.96875 17.0035 9.96875 14.5C9.96875 11.9965 11.9965 9.96875 14.5 9.96875C17.0035 9.96875 19.0312 11.9965 19.0312 14.5C19.0312 17.0035 17.0035 19.0312 14.5 19.0312Z" fill="#0E0E0F" fill-opacity="0.5"/>
</svg>
