<svg width="23" height="30" viewBox="0 0 23 30" fill="none" xmlns="http://www.w3.org/2000/svg">
<path d="M12.9195 29.25C15.9922 25.4883 23 16.3711 23 11.25C23 5.03906 17.849 0 11.5 0C5.15104 0 0 5.03906 0 11.25C0 16.3711 7.00781 25.4883 10.0805 29.25C10.8172 30.1465 12.1828 30.1465 12.9195 29.25ZM11.5 15C9.38568 15 7.66667 13.3184 7.66667 11.25C7.66667 9.18164 9.38568 7.5 11.5 7.5C13.6143 7.5 15.3333 9.18164 15.3333 11.25C15.3333 13.3184 13.6143 15 11.5 15Z" fill="#0E0E0F" fill-opacity="0.5"/>
</svg>
