<svg width="11" height="23" viewBox="0 0 11 23" fill="none" xmlns="http://www.w3.org/2000/svg">
<path d="M5.62473 0.5C3.59975 0.5 1.95806 2.14169 1.95806 4.16667V14.3849C1.19955 15.2464 0.73584 16.3732 0.73584 17.6111C0.73584 20.3112 2.9246 22.5 5.62473 22.5C5.71273 22.5 5.80146 22.4976 5.89044 22.4929C8.41555 22.3592 10.4552 20.2516 10.5124 17.7236C10.5415 16.4414 10.0729 15.2723 9.2914 14.3849V12.7222H7.45806V15.077L7.91542 15.5964C8.42357 16.1706 8.69637 16.9154 8.67931 17.682C8.64411 19.2428 7.34928 20.5796 5.7934 20.662C5.73717 20.6652 5.68071 20.6667 5.62473 20.6667C3.93977 20.6667 2.56917 19.2961 2.56917 17.6111C2.57031 16.8688 2.84228 16.1524 3.33404 15.5964L3.7914 15.077V4.16667C3.7914 3.15589 4.61395 2.33333 5.62473 2.33333C6.63551 2.33333 7.45806 3.15589 7.45806 4.16667H9.2914C9.2914 2.14169 7.64971 0.5 5.62473 0.5Z" fill="white"/>
</svg>
