<svg width="23" height="16" viewBox="0 0 23 16" fill="none" xmlns="http://www.w3.org/2000/svg">
<path d="M22.3776 4.445C16.2578 -1.31605 6.73973 -1.31395 0.622323 4.445C0.392273 4.66156 0.387782 5.02824 0.610233 5.25289L1.79295 6.44715C2.00504 6.6616 2.34632 6.66617 2.5667 6.46051C7.60708 1.76082 15.3922 1.75977 20.4336 6.46051C20.654 6.66617 20.9952 6.66125 21.2073 6.44715L22.3901 5.25289C22.6122 5.02824 22.6077 4.66156 22.3776 4.445ZM11.5 11.375C10.2789 11.375 9.28928 12.3822 9.28928 13.625C9.28928 14.8678 10.2789 15.875 11.5 15.875C12.721 15.875 13.7107 14.8678 13.7107 13.625C13.7107 12.3822 12.721 11.375 11.5 11.375ZM18.5006 8.43629C14.5193 4.85281 8.47616 4.85668 4.49933 8.43629C4.26099 8.65074 4.25339 9.02305 4.47964 9.25016L5.66927 10.4451C5.87652 10.6532 6.2102 10.6673 6.43092 10.4732C9.33073 7.92195 13.6758 7.92758 16.5687 10.4732C16.7894 10.6673 17.1231 10.6536 17.3303 10.4451L18.52 9.25016C18.7466 9.02305 18.7386 8.65039 18.5006 8.43629Z" fill="white"/>
</svg>
