<svg width="30" height="31" viewBox="0 0 30 31" fill="none" xmlns="http://www.w3.org/2000/svg">
<path d="M20.67 30.5V18.89H24.5583L25.14 14.3767H20.67V11.4967C20.67 10.19 21.0333 9.29833 22.9067 9.29833H25.2967V5.26167C24.1397 5.13891 22.9768 5.07937 21.8133 5.08333C18.3683 5.08333 16.01 7.18667 16.01 11.05V14.3767H12.1133V18.89H16.01V30.5H1.66667C1.22464 30.5 0.800716 30.3244 0.488155 30.0118C0.175595 29.6993 0 29.2754 0 28.8333V2.16667C0 1.72464 0.175595 1.30072 0.488155 0.988155C0.800716 0.675595 1.22464 0.5 1.66667 0.5H28.3333C28.7754 0.5 29.1993 0.675595 29.5118 0.988155C29.8244 1.30072 30 1.72464 30 2.16667V28.8333C30 29.2754 29.8244 29.6993 29.5118 30.0118C29.1993 30.3244 28.7754 30.5 28.3333 30.5H20.67Z" fill="white"/>
</svg>
