<svg width="50" height="70" viewBox="0 0 50 70" fill="none" xmlns="http://www.w3.org/2000/svg">
<path d="M5 5.20087V61.9944L20.315 49.247C21.6448 48.1405 23.2971 47.5377 25 47.5377C26.7029 47.5377 28.3552 48.1405 29.685 49.247L45 61.9892V5.20087H5ZM2.5 0H47.5C48.163 0 48.7989 0.273973 49.2678 0.76165C49.7366 1.24933 50 1.91076 50 2.60043V67.4033C49.9993 67.8926 49.8659 68.3718 49.6152 68.7858C49.3644 69.1998 49.0064 69.5318 48.5824 69.7436C48.1583 69.9555 47.6854 70.0386 47.218 69.9834C46.7506 69.9282 46.3076 69.7369 45.94 69.4316L26.56 53.3089C26.117 52.9409 25.5669 52.7405 25 52.7405C24.4331 52.7405 23.883 52.9409 23.44 53.3089L4.06 69.4316C3.6924 69.7369 3.24943 69.9282 2.78201 69.9834C2.31459 70.0386 1.84168 69.9555 1.41763 69.7436C0.993578 69.5318 0.635598 69.1998 0.384827 68.7858C0.134055 68.3718 0.000669665 67.8926 0 67.4033V2.60043C0 1.91076 0.263393 1.24933 0.732234 0.76165C1.20107 0.273973 1.83696 0 2.5 0Z" fill="black" fill-opacity="0.59"/>
</svg>
