<svg width="20" height="13" viewBox="0 0 20 13" fill="none" xmlns="http://www.w3.org/2000/svg">
<path d="M8.53064 11.045C8.75731 11.045 8.93581 11.1102 9.06614 11.2405C9.20214 11.3652 9.27014 11.5323 9.27014 11.742V13H0.838139V12.303C0.838139 12.1613 0.866472 12.014 0.923139 11.861C0.985472 11.7023 1.08181 11.5607 1.21214 11.436L4.94364 7.696C5.25531 7.37867 5.53297 7.0755 5.77664 6.7865C6.02597 6.4975 6.23281 6.21133 6.39714 5.928C6.56147 5.64467 6.68614 5.3585 6.77114 5.0695C6.86181 4.77483 6.90714 4.466 6.90714 4.143C6.90714 3.84833 6.86464 3.5905 6.77964 3.3695C6.69464 3.14283 6.57281 2.953 6.41414 2.8C6.26114 2.647 6.07414 2.53367 5.85314 2.46C5.63781 2.38067 5.39414 2.341 5.12214 2.341C4.87281 2.341 4.64047 2.37783 4.42514 2.4515C4.21547 2.5195 4.02847 2.61867 3.86414 2.749C3.69981 2.87367 3.56097 3.021 3.44764 3.191C3.33431 3.361 3.24931 3.548 3.19264 3.752C3.09631 4.01267 2.97164 4.1855 2.81864 4.2705C2.66564 4.3555 2.44464 4.37533 2.15564 4.33L1.05064 4.1345C1.13564 3.54517 1.29997 3.0295 1.54364 2.5875C1.78731 2.13983 2.09047 1.76867 2.45314 1.474C2.82147 1.17367 3.24081 0.949833 3.71114 0.802499C4.18714 0.6495 4.69714 0.573 5.24114 0.573C5.80781 0.573 6.32631 0.658 6.79664 0.828C7.26697 0.992333 7.66931 1.2275 8.00364 1.5335C8.33797 1.8395 8.59864 2.20783 8.78564 2.6385C8.97264 3.06917 9.06614 3.548 9.06614 4.075C9.06614 4.52833 8.99814 4.94767 8.86214 5.333C8.73181 5.71833 8.55331 6.08667 8.32664 6.438C8.10564 6.78933 7.84497 7.12933 7.54464 7.458C7.24431 7.78667 6.92981 8.121 6.60114 8.461L3.83014 11.2915C4.09647 11.2122 4.35997 11.1527 4.62064 11.113C4.88697 11.0677 5.13914 11.045 5.37714 11.045H8.53064ZM12.8585 4.398C12.8585 5.08367 13.0341 5.60783 13.3855 5.9705C13.7425 6.3275 14.2468 6.506 14.8985 6.506C15.2385 6.506 15.5416 6.45217 15.808 6.3445C16.0743 6.23683 16.2981 6.0895 16.4795 5.9025C16.6608 5.7155 16.7968 5.4945 16.8875 5.2395C16.9838 4.9845 17.032 4.70967 17.032 4.415C17.032 4.08067 16.981 3.78317 16.879 3.5225C16.777 3.25617 16.6325 3.03233 16.4455 2.851C16.2585 2.66967 16.0346 2.53083 15.774 2.4345C15.519 2.33817 15.2385 2.29 14.9325 2.29C14.6151 2.29 14.329 2.34383 14.074 2.4515C13.819 2.5535 13.6008 2.698 13.4195 2.885C13.2381 3.072 13.0993 3.29583 13.003 3.5565C12.9066 3.8115 12.8585 4.092 12.8585 4.398ZM15.6465 8.2315C15.7428 8.1125 15.8335 7.99633 15.9185 7.883C16.0035 7.76967 16.0856 7.65633 16.165 7.543C15.8816 7.72433 15.57 7.86317 15.23 7.9595C14.89 8.05017 14.533 8.0955 14.159 8.0955C13.734 8.0955 13.3175 8.02183 12.9095 7.8745C12.5015 7.72717 12.1388 7.50617 11.8215 7.2115C11.5041 6.91117 11.2463 6.54283 11.048 6.1065C10.8553 5.6645 10.759 5.14883 10.759 4.5595C10.759 4.00983 10.861 3.49417 11.065 3.0125C11.269 2.53083 11.5551 2.10867 11.9235 1.746C12.2918 1.38333 12.7338 1.09717 13.2495 0.887499C13.7651 0.677833 14.3346 0.573 14.958 0.573C15.587 0.573 16.1508 0.672166 16.6495 0.8705C17.1538 1.06883 17.5816 1.3465 17.933 1.7035C18.29 2.0605 18.562 2.48833 18.749 2.987C18.9416 3.48567 19.038 4.0325 19.038 4.6275C19.038 5.00717 19.004 5.367 18.936 5.707C18.8736 6.047 18.783 6.37567 18.664 6.693C18.545 7.00467 18.4005 7.31067 18.2305 7.611C18.0605 7.91133 17.8706 8.20883 17.661 8.5035L14.8475 12.5155C14.7511 12.6515 14.6066 12.7677 14.414 12.864C14.2213 12.9547 14.0031 13 13.7595 13H11.83L15.6465 8.2315Z" fill="white"/>
</svg>
