<svg width="31" height="38" viewBox="0 0 31 38" fill="none" xmlns="http://www.w3.org/2000/svg">
<path d="M15.3734 11.0367C13.9134 11.0367 11.6534 9.37669 9.27344 9.43669C6.13344 9.47669 3.25344 11.2567 1.63344 14.0767C-1.62656 19.7367 0.793436 28.0967 3.97344 32.6967C5.53344 34.9367 7.37344 37.4567 9.81344 37.3767C12.1534 37.2767 13.0334 35.8567 15.8734 35.8567C18.6934 35.8567 19.4934 37.3767 21.9734 37.3167C24.4934 37.2767 26.0934 35.0367 27.6334 32.7767C29.4134 30.1767 30.1534 27.6567 30.1934 27.5167C30.1334 27.4967 25.2934 25.6367 25.2334 20.0367C25.1934 15.3567 29.0534 13.1167 29.2334 13.0167C27.0334 9.79669 23.6534 9.43669 22.4734 9.35669C19.3934 9.11669 16.8134 11.0367 15.3734 11.0367ZM20.5734 6.31669C21.8734 4.75669 22.7334 2.57669 22.4934 0.416687C20.6334 0.496687 18.3934 1.65669 17.0534 3.21669C15.8534 4.59669 14.8134 6.81669 15.0934 8.93669C17.1534 9.09669 19.2734 7.87669 20.5734 6.31669Z" fill="white"/>
</svg>
