<svg width="20" height="10" viewBox="0 0 20 10" fill="none" xmlns="http://www.w3.org/2000/svg">
<path d="M18.1824 0H2.15112C1.75744 0 1.37989 0.138627 1.10151 0.385386C0.823137 0.632144 0.666748 0.96682 0.666748 1.31579L0.666748 8.68421C0.666748 9.03318 0.823137 9.36786 1.10151 9.61462C1.37989 9.86137 1.75744 10 2.15112 10H18.1824C18.5761 10 18.9536 9.86137 19.232 9.61462C19.5104 9.36786 19.6667 9.03318 19.6667 8.68421V1.31579C19.6667 0.96682 19.5104 0.632144 19.232 0.385386C18.9536 0.138627 18.5761 0 18.1824 0ZM1.2605 1.31579C1.2605 1.10641 1.35433 0.905602 1.52136 0.757547C1.68838 0.609492 1.91491 0.526316 2.15112 0.526316H3.32853C3.52617 0.752314 3.63408 1.02984 3.6355 1.31579C3.6355 1.66476 3.47911 1.99943 3.20073 2.24619C2.92236 2.49295 2.5448 2.63158 2.15112 2.63158C1.82854 2.63032 1.51545 2.53467 1.2605 2.35947V1.31579ZM3.32853 9.47368H2.15112C1.91491 9.47368 1.68838 9.39051 1.52136 9.24245C1.35433 9.0944 1.2605 8.89359 1.2605 8.68421V7.64053C1.51545 7.46533 1.82854 7.36968 2.15112 7.36842C2.5448 7.36842 2.92236 7.50705 3.20073 7.75381C3.47911 8.00057 3.6355 8.33524 3.6355 8.68421C3.63408 8.97016 3.52617 9.24769 3.32853 9.47368ZM19.073 8.68421C19.073 8.89359 18.9792 9.0944 18.8121 9.24245C18.6451 9.39051 18.4186 9.47368 18.1824 9.47368H17.005C16.8073 9.24769 16.6994 8.97016 16.698 8.68421C16.698 8.33524 16.8544 8.00057 17.1328 7.75381C17.4111 7.50705 17.7887 7.36842 18.1824 7.36842C18.505 7.36968 18.818 7.46533 19.073 7.64053V8.68421ZM19.073 7.02895C18.7957 6.90816 18.4913 6.8443 18.1824 6.84211C17.6312 6.84211 17.1026 7.03618 16.7129 7.38165C16.3232 7.72711 16.1042 8.19565 16.1042 8.68421C16.1067 8.95806 16.1788 9.2279 16.315 9.47368H4.01847C4.15473 9.2279 4.22677 8.95806 4.22925 8.68421C4.22925 8.19565 4.0103 7.72711 3.62058 7.38165C3.23085 7.03618 2.70228 6.84211 2.15112 6.84211C1.84219 6.8443 1.53777 6.90816 1.2605 7.02895V2.97105C1.53777 3.09184 1.84219 3.1557 2.15112 3.1579C2.70228 3.1579 3.23085 2.96382 3.62058 2.61835C4.0103 2.27289 4.22925 1.80435 4.22925 1.31579C4.22677 1.04194 4.15473 0.772101 4.01847 0.526316H16.315C16.1788 0.772101 16.1067 1.04194 16.1042 1.31579C16.1042 1.80435 16.3232 2.27289 16.7129 2.61835C17.1026 2.96382 17.6312 3.1579 18.1824 3.1579C18.4913 3.1557 18.7957 3.09184 19.073 2.97105V7.02895ZM19.073 2.35947C18.818 2.53467 18.505 2.63032 18.1824 2.63158C17.7887 2.63158 17.4111 2.49295 17.1328 2.24619C16.8544 1.99943 16.698 1.66476 16.698 1.31579C16.6994 1.02984 16.8073 0.752314 17.005 0.526316H18.1824C18.4186 0.526316 18.6451 0.609492 18.8121 0.757547C18.9792 0.905602 19.073 1.10641 19.073 1.31579V2.35947ZM9.86987 3.68421H10.4636C10.6211 3.68421 10.7721 3.73966 10.8835 3.83837C10.9948 3.93707 11.0574 4.07094 11.0574 4.21053C11.0574 4.28032 11.0887 4.34726 11.1443 4.39661C11.2 4.44596 11.2755 4.47368 11.3542 4.47368C11.433 4.47368 11.5085 4.44596 11.5642 4.39661C11.6198 4.34726 11.6511 4.28032 11.6511 4.21053C11.6511 3.93135 11.526 3.66361 11.3033 3.4662C11.0806 3.2688 10.7786 3.1579 10.4636 3.1579V2.89474C10.4636 2.82494 10.4323 2.75801 10.3767 2.70866C10.321 2.6593 10.2455 2.63158 10.1667 2.63158C10.088 2.63158 10.0125 2.6593 9.95683 2.70866C9.90115 2.75801 9.86987 2.82494 9.86987 2.89474V3.1579C9.55493 3.1579 9.25288 3.2688 9.03018 3.4662C8.80748 3.66361 8.68237 3.93135 8.68237 4.21053C8.68237 4.4897 8.80748 4.75744 9.03018 4.95485C9.25288 5.15226 9.55493 5.26316 9.86987 5.26316H10.4636C10.6211 5.26316 10.7721 5.31861 10.8835 5.41731C10.9948 5.51602 11.0574 5.64989 11.0574 5.78947C11.0574 5.92906 10.9948 6.06293 10.8835 6.16164C10.7721 6.26034 10.6211 6.31579 10.4636 6.31579H9.86987C9.7124 6.31579 9.56138 6.26034 9.45003 6.16164C9.33868 6.06293 9.27612 5.92906 9.27612 5.78947C9.27612 5.71968 9.24485 5.65274 9.18917 5.60339C9.1335 5.55404 9.05798 5.52632 8.97925 5.52632C8.90051 5.52632 8.825 5.55404 8.76933 5.60339C8.71365 5.65274 8.68237 5.71968 8.68237 5.78947C8.68237 6.06865 8.80748 6.33639 9.03018 6.5338C9.25288 6.7312 9.55493 6.84211 9.86987 6.84211V7.10526C9.86987 7.17506 9.90115 7.24199 9.95683 7.29134C10.0125 7.3407 10.088 7.36842 10.1667 7.36842C10.2455 7.36842 10.321 7.3407 10.3767 7.29134C10.4323 7.24199 10.4636 7.17506 10.4636 7.10526V6.84211C10.7786 6.84211 11.0806 6.7312 11.3033 6.5338C11.526 6.33639 11.6511 6.06865 11.6511 5.78947C11.6511 5.5103 11.526 5.24256 11.3033 5.04515C11.0806 4.84774 10.7786 4.73684 10.4636 4.73684H9.86987C9.7124 4.73684 9.56138 4.68139 9.45003 4.58269C9.33868 4.48399 9.27612 4.35011 9.27612 4.21053C9.27612 4.07094 9.33868 3.93707 9.45003 3.83837C9.56138 3.73966 9.7124 3.68421 9.86987 3.68421ZM10.1667 1.57895C9.40344 1.57895 8.65727 1.77959 8.02259 2.1555C7.38792 2.53141 6.89326 3.0657 6.60115 3.69082C6.30904 4.31594 6.23261 5.0038 6.38153 5.66742C6.53044 6.33103 6.89801 6.94061 7.43776 7.41905C7.9775 7.89749 8.66518 8.22332 9.41382 8.35532C10.1625 8.48732 10.9385 8.41957 11.6437 8.16064C12.3489 7.90171 12.9516 7.46322 13.3757 6.90064C13.7998 6.33805 14.0261 5.67662 14.0261 5C14.0249 4.09302 13.6179 3.22351 12.8943 2.58218C12.1708 1.94085 11.1899 1.58006 10.1667 1.57895ZM10.1667 7.89474C9.52087 7.89474 8.88949 7.72496 8.35246 7.40689C7.81543 7.08881 7.39687 6.63671 7.1497 6.10777C6.90254 5.57882 6.83787 4.99679 6.96387 4.43527C7.08988 3.87374 7.4009 3.35795 7.8576 2.95311C8.31431 2.54828 8.89619 2.27258 9.52966 2.16089C10.1631 2.04919 10.8197 2.10652 11.4164 2.32561C12.0132 2.54471 12.5232 2.91573 12.882 3.39177C13.2408 3.86781 13.4324 4.42748 13.4324 5C13.4314 5.76748 13.0871 6.50328 12.4749 7.04597C11.8626 7.58865 11.0326 7.8939 10.1667 7.89474Z" fill="white"/>
</svg>
