<svg width="11" height="18" viewBox="0 0 11 18" fill="none" xmlns="http://www.w3.org/2000/svg">
<path d="M5.73994 0.000345089C5.2924 0.000345089 4.86318 0.178131 4.54672 0.494593C4.23026 0.811054 4.05247 1.24027 4.05247 1.68781C4.05247 2.13536 4.23026 2.56457 4.54672 2.88103C4.86318 3.19749 5.2924 3.37528 5.73994 3.37528C6.18748 3.37528 6.6167 3.19749 6.93316 2.88103C7.24962 2.56457 7.42741 2.13536 7.42741 1.68781C7.42741 1.24027 7.24962 0.811054 6.93316 0.494593C6.6167 0.178131 6.18748 0.000345089 5.73994 0.000345089ZM9.93555 0.000345089C9.79729 0.00399148 9.66204 0.0415485 9.54169 0.109714C9.42135 0.17788 9.31959 0.274567 9.24537 0.391275L6.98979 3.93777H4.05247C4.04797 3.93777 4.0446 3.94002 4.0401 3.94002C3.92741 3.93779 3.81543 3.9583 3.71086 4.00035C3.60628 4.04239 3.51126 4.10509 3.43148 4.1847L0.913782 6.70297C0.755606 6.86119 0.666748 7.07576 0.666748 7.29949C0.666748 7.52321 0.755606 7.73778 0.913782 7.89601L3.45623 10.4407C3.46523 10.4497 3.48436 10.4525 3.48436 10.4615V11.3165L1.90208 14.2201C1.86488 14.2896 1.83761 14.364 1.82108 14.4411L1.25859 16.9723C1.23122 17.0958 1.23193 17.2239 1.26067 17.3471C1.28941 17.4703 1.34546 17.5855 1.42466 17.6841C1.50386 17.7827 1.6042 17.8623 1.71828 17.917C1.83236 17.9717 1.95726 18 2.08376 18C2.47019 18 2.81893 17.7317 2.90668 17.3385L3.44386 14.9237L4.53115 12.9286C4.55927 12.9308 4.58627 12.9376 4.61496 12.9376H6.86492C6.89304 12.9376 6.91948 12.9308 6.94704 12.9286L8.0349 14.9237L8.57207 17.3385C8.62062 17.5569 8.75386 17.7471 8.94254 17.8673C9.13122 17.9876 9.3599 18.028 9.57837 17.9798C9.79678 17.9311 9.98695 17.7977 10.1071 17.6089C10.2272 17.4201 10.2675 17.1914 10.219 16.9729L9.65655 14.4417C9.63885 14.3644 9.61045 14.29 9.57218 14.2206L7.98427 11.3159V5.42724C7.98427 5.42218 7.97865 5.42837 7.9764 5.42724C7.98877 5.41824 7.97358 5.44074 8.01521 5.39574L10.52 1.45832C10.7703 1.06457 10.8029 0.382275 10.4103 0.131968C10.2687 0.0413833 10.1036 -0.00447972 9.93555 0.000345089ZM3.48436 6.51397V8.085L2.69912 7.29977L3.48436 6.51397Z" fill="white"/>
</svg>
