<svg width="13" height="23" viewBox="0 0 13 23" fill="none" xmlns="http://www.w3.org/2000/svg">
<path fill-rule="evenodd" clip-rule="evenodd" d="M1.4484 8.01196C2.09058 7.15407 3.07183 6.55 4.36367 6.55H8.76367C10.0555 6.55 11.0368 7.15407 11.6789 8.01196C12.3102 8.85522 12.6137 9.93784 12.6137 10.95V13.7C12.6137 14.6113 11.875 15.35 10.9637 15.35C10.7708 15.35 10.5857 15.3169 10.4137 15.2561V20.9395C10.4137 21.8013 9.71501 22.5 8.85316 22.5C8.05307 22.5 7.38284 21.8949 7.30089 21.0995L6.76129 16.45H6.36606L5.82645 21.0995C5.7445 21.8949 5.07427 22.5 4.27419 22.5C3.41234 22.5 2.71367 21.8013 2.71367 20.9395V15.2561C2.54163 15.3169 2.3565 15.35 2.16367 15.35C1.25238 15.35 0.513672 14.6113 0.513672 13.7V10.95C0.513672 9.93784 0.817107 8.85522 1.4484 8.01196ZM4.36367 7.65H8.76367C9.67183 7.65 10.3406 8.05964 10.7984 8.67119C11.2671 9.29725 11.5137 10.1396 11.5137 10.95V13.7C11.5137 14.0038 11.2674 14.25 10.9637 14.25C10.6599 14.25 10.4137 14.0038 10.4137 13.7V10.125H9.31367V20.9395C9.31367 21.1938 9.10748 21.4 8.85316 21.4C8.6166 21.4 8.41849 21.2207 8.39495 20.9853L8.39451 20.981L7.79749 15.8366C7.76531 15.5592 7.53041 15.35 7.25117 15.35H5.87617C5.59694 15.35 5.36203 15.5592 5.32986 15.8366L4.73283 20.981L4.73239 20.9853C4.70885 21.2207 4.51074 21.4 4.27419 21.4C4.01987 21.4 3.81367 21.1938 3.81367 20.9395V12.875H2.71367V13.7C2.71367 14.0038 2.46744 14.25 2.16367 14.25C1.85991 14.25 1.61367 14.0038 1.61367 13.7V10.95C1.61367 10.1396 1.86024 9.29725 2.32895 8.67119C2.78677 8.05964 3.45551 7.65 4.36367 7.65ZM7.93867 2.975C7.93867 3.73439 7.32306 4.35 6.56367 4.35C5.80429 4.35 5.18867 3.73439 5.18867 2.975C5.18867 2.21561 5.80429 1.6 6.56367 1.6C7.32306 1.6 7.93867 2.21561 7.93867 2.975ZM9.03867 2.975C9.03867 4.34192 7.93059 5.45 6.56367 5.45C5.19676 5.45 4.08867 4.34192 4.08867 2.975C4.08867 1.6081 5.19676 0.5 6.56367 0.5C7.93059 0.5 9.03867 1.6081 9.03867 2.975ZM10.6887 3.25C11.1443 3.25 11.5137 2.82716 11.5137 2.30556C11.5137 1.47917 10.6887 0.5 10.6887 0.5C10.6887 0.5 9.86367 1.47917 9.86367 2.30556C9.86367 2.82716 10.2331 3.25 10.6887 3.25Z" fill="white"/>
</svg>
