<svg width="19" height="18" viewBox="0 0 19 18" fill="none" xmlns="http://www.w3.org/2000/svg">
<path d="M5.2991 4.01471C4.50498 3.72794 3.75498 3.35294 3.02704 2.91176C4.15204 1.69853 5.58587 0.772059 7.21822 0.308824C6.4241 1.16912 5.76234 2.44853 5.2991 4.01471ZM3.02704 15.0662C4.15204 16.3015 5.60792 17.2059 7.24028 17.6912C6.4241 16.8088 5.76234 15.5294 5.32116 13.9632C4.50498 14.25 3.73292 14.625 3.02704 15.0662ZM4.63734 9.44118H0.666748C0.754983 11.2941 1.39469 12.9926 2.43145 14.3824C3.26969 13.8529 4.15204 13.4338 5.05645 13.1029C4.81381 11.9779 4.68145 10.7426 4.63734 9.44118ZM12.2035 17.6912C13.8359 17.2279 15.2917 16.3015 16.3947 15.0882C15.6667 14.6471 14.9167 14.2721 14.1226 13.9853C13.6594 15.5515 12.9976 16.8309 12.2035 17.6912ZM16.3947 2.93382C15.2697 1.69853 13.8138 0.794118 12.1815 0.308824C12.9976 1.19118 13.6594 2.47059 14.1006 4.03676C14.9167 3.75 15.6888 3.375 16.3947 2.93382ZM5.07851 4.875C4.1741 4.54412 3.29175 4.125 2.45351 3.59559C1.41675 4.98529 0.777042 6.70588 0.666748 8.55882H4.63734C4.68145 7.23529 4.81381 6 5.07851 4.875ZM14.7844 8.55882H18.755C18.6667 6.70588 18.027 5.00735 16.9903 3.61765C16.152 4.14706 15.2697 4.56618 14.3653 4.89706C14.6079 6.02206 14.7403 7.25735 14.7844 8.55882ZM14.3432 13.125C15.2476 13.4559 16.13 13.875 16.9682 14.4044C18.027 13.0147 18.6667 11.2941 18.755 9.44118H14.7844C14.7403 10.7647 14.6079 12 14.3432 13.125ZM9.26969 18V13.1912C8.21087 13.2353 7.15204 13.3897 6.13734 13.6765C6.82116 16.0147 7.96822 17.6691 9.26969 18ZM13.902 9.44118H10.152V12.3088C11.2991 12.3529 12.402 12.5294 13.4829 12.8382C13.7256 11.8015 13.8579 10.6544 13.902 9.44118ZM10.152 13.1912V17.9779C11.4535 17.6691 12.6006 16.0147 13.2623 13.6765C12.2697 13.4118 11.2109 13.2353 10.152 13.1912ZM10.152 0V4.80882C11.2109 4.76471 12.2697 4.61029 13.2844 4.32353C12.6006 1.98529 11.4535 0.308823 10.152 0ZM5.51969 8.55882H9.26969V5.69118C8.12263 5.64706 7.01969 5.47059 5.93881 5.16176C5.69616 6.19853 5.56381 7.34559 5.51969 8.55882ZM6.1594 4.30147C7.15204 4.58823 8.21087 4.76471 9.26969 4.80882V0C7.96822 0.308823 6.82116 1.98529 6.1594 4.30147ZM13.4829 5.16176C12.402 5.47059 11.2991 5.64706 10.152 5.69118V8.55882H13.902C13.8579 7.34559 13.7256 6.19853 13.4829 5.16176ZM5.93881 12.8382C7.01969 12.5294 8.14469 12.3529 9.26969 12.3088V9.44118H5.51969C5.56381 10.6544 5.69616 11.7794 5.93881 12.8382Z" fill="white"/>
</svg>
