<svg width="26" height="24" viewBox="0 0 26 24" fill="none" xmlns="http://www.w3.org/2000/svg">
<path d="M8.59927 1.22573e-05C9.39505 0.0242135 10.1656 0.163159 10.9121 0.417049H10.9866C11.0371 0.441049 11.075 0.467575 11.1003 0.491574C11.3794 0.581257 11.6434 0.682308 11.8961 0.821253L12.376 1.03599C12.5655 1.13704 12.7929 1.32524 12.9192 1.4023C13.0455 1.47682 13.1845 1.55387 13.2981 1.64103C14.7015 0.568626 16.4055 -0.0124174 18.1612 1.22573e-05C18.9583 1.22573e-05 19.754 0.112633 20.5107 0.366524C25.1729 1.88229 26.8529 6.99799 25.4495 11.4695C24.6537 13.7545 23.3527 15.84 21.6487 17.5439C19.2096 19.906 16.533 22.0028 13.6518 23.8091L13.336 23.9998L13.0076 23.7964C10.1163 22.0028 7.42455 19.906 4.9627 17.5313C3.27009 15.8273 1.9678 13.7545 1.15939 11.4695C-0.267952 6.99799 1.41202 1.88229 6.12478 0.339998C6.49109 0.213684 6.86877 0.125265 7.24771 0.0760022H7.39929C7.75423 0.0242135 8.10665 1.22573e-05 8.46032 1.22573e-05H8.59927ZM19.8538 3.99173C19.3359 3.81362 18.7675 4.09278 18.5781 4.6233C18.4012 5.15381 18.6791 5.73486 19.2096 5.92306C20.0193 6.22622 20.5612 7.02326 20.5612 7.90619V7.94535C20.5372 8.2346 20.6243 8.51376 20.8012 8.72849C20.978 8.94322 21.2433 9.06827 21.5212 9.0948C22.039 9.0809 22.4811 8.66533 22.519 8.13355V7.98324C22.5569 6.21358 21.4845 4.61066 19.8538 3.99173Z" fill="white"/>
</svg>
