<svg width="20" height="18" viewBox="0 0 20 18" fill="none" xmlns="http://www.w3.org/2000/svg">
<path d="M15.7468 11.1971C15.5014 11.4349 15.3887 11.7788 15.4446 12.116L16.2867 16.7768C16.3578 17.1718 16.1911 17.5716 15.8605 17.7999C15.5365 18.0367 15.1055 18.0651 14.7521 17.8756L10.5565 15.6874C10.4106 15.6097 10.2486 15.568 10.0828 15.5633H9.82612C9.73708 15.5765 9.64992 15.605 9.57035 15.6485L5.37379 17.8472C5.16633 17.9514 4.9314 17.9884 4.7012 17.9514C4.1404 17.8453 3.76621 17.3111 3.8581 16.7474L4.7012 12.0867C4.75709 11.7466 4.64436 11.4008 4.39901 11.1593L0.978294 7.84369C0.692208 7.56613 0.592741 7.14931 0.723469 6.77323C0.850408 6.3981 1.17439 6.12433 1.56562 6.06275L6.27373 5.37975C6.63181 5.3428 6.94632 5.12492 7.10736 4.80284L9.18195 0.549437C9.23121 0.454706 9.29468 0.367554 9.37142 0.293665L9.45667 0.227353C9.5012 0.178093 9.55235 0.137359 9.60919 0.104204L9.71245 0.0663114L9.87349 0H10.2723C10.6285 0.0369449 10.942 0.250089 11.1059 0.568383L13.208 4.80284C13.3596 5.11261 13.6542 5.32764 13.9943 5.37975L18.7024 6.06275C19.1002 6.11959 19.4327 6.39431 19.5644 6.77323C19.6885 7.1531 19.5815 7.56991 19.2897 7.84369L15.7468 11.1971Z" fill="white"/>
</svg>
